<svg xmlns="http://www.w3.org/2000/svg" viewBox="0 0 562.17 614.31"><defs><style>.a,.b{fill:#fff;}.b,.c{stroke:#fff;}.b{stroke-linejoin:round;stroke-width:15px;}.c,.e{fill:#006e80;}.c,.d{stroke-miterlimit:10;}.c{stroke-width:12px;}.d{fill:none;stroke:#1d1d1b;stroke-width:9.68px;}</style></defs><title>logo</title><circle class="a" cx="281.81" cy="352.73" r="261.57"/><path class="b" d="M547,161.76c.7,5.7,1.65,11.39,2.05,17.11.95,13.53-.7,26.7-6.35,39.18a59.8,59.8,0,0,1-19.39,23.86,127.12,127.12,0,0,0-24.81,24.76c-7.34,9.44-14.63,18.93-21.71,28.57-14,19.11-32,33.34-53.32,43.53-12.77,6.1-25.57,12.18-38.09,18.77-7.79,4.1-15.15,9-22.55,13.83a36.41,36.41,0,0,0-10.18,10c-2,2.94-3.48,6.06-2.82,9.81.24,1.34-.6,2-1.8,2a21.79,21.79,0,0,1-5.09-.52,74.72,74.72,0,0,1-24.3-11.5,17.87,17.87,0,0,1-3.76-3.73c-1.14-1.52-.49-2.85,1.4-3.21s4-.55,6-.93c4.64-.89,6.72-2.89,7.55-7.57.48-2.71.55-5.48.86-8.22a38,38,0,0,1,5.19-14.83c2.47-4.24,5-8.43,7.74-12.51,7.62-11.49,11.19-24.37,12.63-37.84.83-7.77.69-15.65.67-23.6.21.37.45.72.62,1.11,4.21,9.54,5,19.52,3.77,29.75-1.62,13.68-6.42,26.39-11.84,38.91q-2.59,6-5.08,12a11.35,11.35,0,0,0-.87,3,3.24,3.24,0,0,0,.46,2.32c.3.32,1.5.05,2.16-.24,4.87-2.17,9.72-4.4,14.56-6.63,18.92-8.72,38-17.21,56.22-27.31,13.3-7.36,26-15.61,36.53-26.74,2.57-2.71,5.57-5.36,7.07-8.63s1.07-7.23,1.89-10.8q2.18-9.56,5.22-18.94c1.47,6.38,1.07,12.69,0,19.56.55-.86.83-1.27,1.07-1.7,5.89-10.41,10.06-21.53,13.48-32.95a3.49,3.49,0,0,0-.06-2.27c-5-10.65-6.62-21.93-6.07-33.52.27-5.6,1.43-11.16,2.21-16.73a3.44,3.44,0,0,1,.58-1.33,47.79,47.79,0,0,0,1.68,16c1.56,5.85,3.35,11.63,5.14,17.8,1.3-6.49,2-25.7-.53-49.46-1.73-16.33-4.12-32.59-6.23-49,.42.32.94.67,1.42,1.08,4.51,3.91,7.06,9,9,14.54,3,8.67,4.38,17.71,5.89,26.72,1.67,10,3,20,6.59,29.57a53.6,53.6,0,0,0,3.19,7c2,3.7,5.4,5,9.52,4a15.25,15.25,0,0,0,8.79-6.29c4.5-6.36,6.62-13.62,8-21.16,2-11,2.06-22.09,1.83-33.2a4.46,4.46,0,0,1,.37-2.12c.75,1.55,1.58,3.08,2.25,4.67,4.57,11,5.62,22.47,4.49,34.13a114.56,114.56,0,0,1-3.36,17.66,47,47,0,0,1-11.08,20.11c-2.53,2.76-4.91,5.65-7.29,8.54a25.36,25.36,0,0,0-1.9,3.25,9,9,0,0,0,6.56-1.78c6.77-4.71,10.5-11.74,13.94-18.86,4.56-9.44,6.6-19.61,7.78-29.95.72-6.33,1.15-12.7,1.71-19Z" transform="translate(-16.36 -113.83)"/><path class="b" d="M248.76,268c0,4.41-.05,8.56,0,12.7.22,14.13,2.49,27.88,8.59,40.72,2.54,5.35,5.94,10.29,9,15.38,3.24,5.37,6.46,10.77,7.61,17,.67,3.6.71,7.32,1.28,10.95.84,5.27,2.77,7.17,8,8.22,1.8.36,3.64.54,5.44.89,2.11.4,2.68,1.68,1.43,3.42a11.93,11.93,0,0,1-2.54,2.63,71.25,71.25,0,0,1-27.72,12.63,9.27,9.27,0,0,1-2,.17c-2.37,0-2.87-.66-2.56-3a11.49,11.49,0,0,0-1.89-7.35c-2.86-4.92-7-8.7-11.48-12A210.36,210.36,0,0,0,211,352c-9.49-4.74-19-9.45-28.54-14a141.11,141.11,0,0,1-54.73-45.78C121,282.76,114,273.57,107,264.43a138.08,138.08,0,0,0-25.58-25.54c-12.55-9.64-19.54-22.73-22.56-38.06C56.16,187.18,57,173.61,60,160.1c0-.11.13-.19.35-.52.24,3.86.43,7.5.7,11.13.83,11.28,2.4,22.43,6.26,33.15a69.91,69.91,0,0,0,10.48,18.91c2.36,3.08,5.28,5.66,9.2,6.7a18.69,18.69,0,0,0,2.79.24,25,25,0,0,0-1.72-3.1,77.2,77.2,0,0,0-5.28-6.37c-8.57-8.81-13.22-19.5-15.25-31.45-2.29-13.44-2-26.76,2.42-39.79.73-2.14,1.76-4.18,2.68-6.24.27-.6.66-1.14,1.19-2,0,1.62,0,2.86,0,4.1-.4,11.31-.15,22.58,2,33.72,1.32,6.79,3.4,13.31,7.4,19.06A15.38,15.38,0,0,0,91.89,204c4.16,1.14,7.55-.23,9.7-4a60.85,60.85,0,0,0,6.55-18.47c2.1-10.46,3.9-21,5.94-31.44a74,74,0,0,1,5.52-17.88,27,27,0,0,1,8.59-10.89c-2.23,16.37-4.69,32.55-6.58,48.8s-2.65,32.71-1,49.16c3.33-10.77,7.88-21.26,7.11-32.92l.45-.07c.52,2.58,1.17,5.14,1.54,7.75,1.87,13.46.9,26.67-3.84,39.5a3.15,3.15,0,0,1-.28.68c-2.08,3.09-1.59,6.17-.47,9.54,3.35,10,7,19.89,12.15,29.15a5.72,5.72,0,0,0,.85,1.19c-.83-6.37-1.23-12.7-.09-19l.55-.12c1.28,4.51,2.79,9,3.8,13.54,1.08,4.9,1.66,9.91,2.56,14.85a7.41,7.41,0,0,0,1.31,3.1c8.27,10.72,18.56,19.19,29.85,26.51,14.75,9.57,30.49,17.28,46.31,24.84,12.16,5.81,24.4,11.48,36.62,17.17a9.42,9.42,0,0,0,2.4.43c.12-.86.56-1.83.31-2.56-1.19-3.53-2.45-7.06-3.91-10.49-4.64-10.89-9.18-21.81-11.73-33.43-2.5-11.35-3.24-22.7.19-34C246.94,272.62,247.88,270.42,248.76,268Z" transform="translate(-16.36 -113.83)"/><circle class="c" cx="281.81" cy="352.73" r="238"/><path class="a" d="M529.61,545.33c-5.74-2.62-10.39-7.2-16.86-7.42-3.35-3.65-8.22-6.67-12.65-9.53-2.79-4-7.81-5.79-10.94-9.57-4.85-5.87-11.36-10.43-17.17-15.31a6.59,6.59,0,0,0-1.57-1c-1.45-2.34-5.64-2-6.38.89a6.56,6.56,0,0,0-2.27,3,6.2,6.2,0,0,0-2.21,1.38c-2.73,2.59-4.87,5.58-7.34,8.4a46.72,46.72,0,0,0-3.46,3.86c-.79,1.12-1.33,2.29-2.24,3.35a7.44,7.44,0,0,0-1,1.43,35.15,35.15,0,0,0-8.89,7.4l-12.9-17.2a34.76,34.76,0,0,0-6.42-6.63,7.64,7.64,0,0,0-1.49-5.59,31.84,31.84,0,0,0-6-5.92,7.32,7.32,0,0,1-2.28-2.33l-.16-.86a1.46,1.46,0,0,1,0-.2,6.53,6.53,0,0,0-1.56-5.81,6.33,6.33,0,0,0-6.63-2.4,5.9,5.9,0,0,0-4.31,5.94c-.16.14-.31.27-.47.44a30.69,30.69,0,0,0-6.81,10.4c-.58,1.57-2.25,3-3.19,4.36a12.79,12.79,0,0,0-2,6.64,6.33,6.33,0,0,0,.1,1.64,7,7,0,0,0-.66.47,5.47,5.47,0,0,1-.52.27,5.49,5.49,0,0,0-2.53,2.93,24.2,24.2,0,0,0-9.14,6q-1.34,0-2.67,0a31.49,31.49,0,0,0-14-10.17c-8-3.06-17.5-1.48-24.93,2.45-8.52,4.51-13.37,12-16.93,20.63a63.37,63.37,0,0,0-3.39,11.41c-8.18-3.71-17-5.69-26.58-6.82a144.06,144.06,0,0,0-17.43-.57c-3.18,0-6.35,0-9.53-.08-1.9,0-3.79-.18-5.68-.32l-.39,0-.84-.16a53.85,53.85,0,0,1-8.56-2.43c-1.51-.7-3-1.46-4.47-2.22-5.66-2.92-11.18-6.18-16.68-9.41q-6.3-3.71-12.27-7.92c.79.48-3.89-3.21-4.78-4a69.87,69.87,0,0,1-6.82-7.33,16.28,16.28,0,0,0-4.65-3.78c.75-3.26-1.28-6-4.25-7.11a17,17,0,0,1-7-5.28c-2.11-2.51-6.32-2.16-8.49,0a5.67,5.67,0,0,0-1.65,3.25c-4,2.34-6.88,7.79-7.85,12a6.44,6.44,0,0,0-.14,2.07,40,40,0,0,0-2.93,3.58L143.8,530a16.74,16.74,0,0,0-2.68,6c-.43,0-1,0-1.5-.09l-1.1-.31c-.28-.16-.58-.36-.86-.55-2.24-2.06-4.31-4.34-6.71-6.24l-1.18-.91a5.29,5.29,0,0,0-1.69-5.24,23.61,23.61,0,0,0-3.36-2.81,31.26,31.26,0,0,1-3.36-1.82c-1.31-1.1-2.61-2.2-4-3.19a11.38,11.38,0,0,1-1.05-.75c-.14-.12-.25-.22-.33-.3a6,6,0,0,0-6-5.53A6.17,6.17,0,0,0,104.1,513a5.92,5.92,0,0,0-3.07,1.6c-3,2.85-5.93,5.72-8.71,8.74a27.2,27.2,0,0,0-7.4,6.19,53.57,53.57,0,0,0-4.37,6,26.16,26.16,0,0,0-11.27,8.77h0a6.6,6.6,0,0,0-3.58,8.47,17.39,17.39,0,0,0-.15,4.62c1.3,12.3,6,20,15.84,27.35,6.69,5,16.51,6.18,24.5,7a199,199,0,0,0,33.4.2,29.18,29.18,0,0,0,15.91,6.54q20.42,2.24,40.92,3.31c5.08,1,10.13,2.17,15.18,3.29A25.64,25.64,0,0,0,229,602.69q24.58.17,49.14-1.32a59.57,59.57,0,0,0,8.87,7.05c10.13,6.73,22.86,6,34.24,4.44,4.29-.58,8.57-1.32,12.81-2.2,12.56,2,25.43-.11,37.68-3,10.27-2.44,20.92-5.23,29.92-10.92.89-.56,1.74-1.16,2.58-1.77,4.6.57,9.09.93,13.17,1.27,9.34.79,19.33.5,28.67-1.85,5.72.74,11.46,1.39,17.21,1.75a80.69,80.69,0,0,0,38.57-7.1c6.93-3.09,13.72-8.79,17.36-15.45a27.19,27.19,0,0,0,3-8.28,5.88,5.88,0,0,0,5.57-4.14l.23-.67c0-.23.08-.42.11-.6q.73-.92,1.42-1.86a22.59,22.59,0,0,0,2.83-5.93A5.93,5.93,0,0,0,529.61,545.33Z" transform="translate(-16.36 -113.83)"/><circle class="d" cx="281.81" cy="352.73" r="247.74"/><path d="M249.22,558.45c-2.72-2.39-6-4.41-8-7.27-4-5.5-8.29-10.52-13.92-14.39a6.83,6.83,0,0,1-2.32-3,21.8,21.8,0,0,0-8.73-10.91c-2.59-1.63-5.15-3.3-7.83-5,2.92-2.59,5.65-5.17,8.58-7.48a3.35,3.35,0,0,1,3-.09c4,2.28,7.77,4.92,11.79,7.15,1.79,1,4,1.31,5.95,1.94l.43-.92c-5.37-4-10.41-8.48-16.69-11.28-2.32-1-3.81-.68-5.57,1-2.92,2.78-6.06,5.34-9.2,8.07a36.22,36.22,0,0,0-2.87-4c-4.38-4.61-10.16-7.58-13.93-13.12-2.4-3.53-6.77-5.8-10.45-8.35-6.76-4.69-7.06-4.63-12,2.14-5.93,8.17-11.76,16.42-17.56,24.69-3.2,4.56-6.25,9.24-9.53,14.11-3.4-3.91-9.16-5.33-10.46-11.14-.08-.35-.59-.63-.94-.89-4.93-3.66-9.78-7.44-14.84-10.92-4.46-3.06-4.55-2.9-8.58.81-.81.74-1.78,1.3-2.6,2-7,6.26-14,12.48-20.81,18.86-1.65,1.54-2.4,4.18-4.19,5.41-4.15,2.86-8.68,5.14-13,7.69a17.72,17.72,0,0,0-4.12,3.28,4.71,4.71,0,0,1,1.6,2.33c.25-.12.51-.23.75-.36,7.6-4.09,14.77-8.76,20.44-15.41,2.26-2.66,4.33-5.55,6.92-7.84,6.28-5.55,12.82-10.81,19.76-16.62.44.5,1.22,1.35,2,2.24,2.3,2.75,4.34,5.79,7,8.2,2.44,2.25,5.12,4,5.63,7.72.14,1,1.47,1.82,2.27,2.72,2.62,2.94,5.5,5.68,7.82,8.85,2.53,3.45,1.71,5.89-1.64,8.54a19.18,19.18,0,0,0-6.79,11.86,20.48,20.48,0,0,0,6.06-4.9c4.68-6.39,9-13,11.15-20.79a25.24,25.24,0,0,1,4-7.81c3.9-5.44,8.24-10.57,12.15-16,4.41-6.11,8.55-12.41,12.7-18.48,2.32,2.19,4.18,4.41,6.47,6,4.34,3.06,7.74,7,11.47,10.69,5.25,5.19,11.62,9.33,17.84,13.42a14.64,14.64,0,0,1,5.75,6.38,20.46,20.46,0,0,0,4.07,5.76c3.41,3.41,7.85,6,10.48,9.9,5,7.41,12.24,11.86,19.34,16.62a17.53,17.53,0,0,0,3.3,1.36A5.88,5.88,0,0,0,249.22,558.45Z" transform="translate(-16.36 -113.83)"/><path d="M351.1,512c-7.36,5.79-9.89,15.36-18.74,19.18-.05-.64-.22-1.07-.08-1.23,5.53-6.48,11-13,16.74-19.32.59-.65,2.47-.6,3.56-.26,6.33,2,12.78,7,17.57,13.5,5.73-4.52,10.85-9.14,12.2-17.11.59-3.47,3.79-6.5,5.77-9.74,1.16-1.9,2-4,3.45-5.69a108.79,108.79,0,0,1,8-8.07c.34-.32,1.51-.07,2.12.24a20,20,0,0,1,9.13,8.71,58.07,58.07,0,0,0,6.94,10.32c6.46,7.8,13.18,15.38,19.79,23.05.57.66,1.06,1.38,2,2.6,3.32-3.8,6.14-7.25,9.19-10.49q8.34-8.86,17-17.45c.56-.55,2.41-.5,3.2,0,5.94,3.75,12,7.39,17.53,11.66,3.14,2.41,5.35,6,8.08,9a36.05,36.05,0,0,0,3.72,3.19c4,3.27,7.9,6.59,12,9.75a12.71,12.71,0,0,0,4.32,2.18c7,1.94,13.88,4.25,19.57,9.06.5.42,1,.84,1.47,1.3.13.13.12.41.17.62-.2.08-.42.25-.58.21-13.48-3.59-26.32-8.24-36.06-19.08-2.58-2.87-6.4-4.59-9.53-7-1.73-1.33-3.79-2.71-4.69-4.56-2.48-5.06-6.85-7.91-11.21-10.89-2.17-1.49-4.32-3-6.48-4.52L441.5,529.74c6.72,12.42,15.45,24.1,27.8,32.82-6.4-2-11.57-5.72-16.54-9.87-9-7.52-15.85-16.69-21.7-26.79-2.07-3.58-5.06-6.66-7.8-9.82-5.71-6.57-11.74-12.86-17.21-19.62-2.63-3.25-4.28-7.29-6.49-11.19L398,488c-1.08,1.89-1.78,4.22-3.32,5.59a21.42,21.42,0,0,0-7,12.66c-1,5.22-4.41,9.1-8.33,12.39-6.7,5.62-11.31,12.81-16.19,19.91-2.67,3.88-6.34,7.08-9.55,10.59l-1-.83L368.24,526Z" transform="translate(-16.36 -113.83)"/><path class="a" d="M393,372a179.68,179.68,0,0,0-24.78,12.55c-4,2.46-7.89,5.16-11.68,8-3.27,2.42-8.54-3-11.59-4.75-2.21-1.29-4.47-2.53-6.76-3.74a66.61,66.61,0,0,0,3.56-6.74c2.62-5.75-5.36-10.74-8.63-5q-2.08,3.63-4,7.36c-3.23-1.47-6.48-2.83-9.74-4.08-9.8-3.76-20.59-2.66-30.75-1.47a5.2,5.2,0,0,0-4.67,4,41.81,41.81,0,0,0-3.62,3.17,44.34,44.34,0,0,1-4.28,3.81,26.38,26.38,0,0,0-7.91,2.75q-.85.06-1.7.09c-.71-.83-1.44-1.64-2.22-2.43-3.31-3.37-10.23,0-8.36,4.86a23.36,23.36,0,0,1,1.52,10.05,107.93,107.93,0,0,0-47-26.27c-3.78-1-6.18,2-6.17,5a6.18,6.18,0,0,0-.87,4.44l1.51,8a4.24,4.24,0,0,0,2.05,3.07c-.1,1.53-.29,3.06-.26,4.61.05,2.94,1.76,5.34,3.16,7.77,2.85,4.93,5.55,8.73,10.28,12,7.94,5.57,17.91,6,27.42,5.13-4.82,9.42-9.92,19.24-10.5,30a4.67,4.67,0,0,0,.58,2.65,55.75,55.75,0,0,1-3,8.33A46.48,46.48,0,0,0,230,487l-7.58,11.07a4.73,4.73,0,0,0-4.4,4.79c0,.57,0,1.14-.05,1.71L213.55,511a4.28,4.28,0,0,0-5.1,2.34l-.85,2a16.2,16.2,0,0,0-8.21,3.4c-4.63,3.89-7.23,10-9.47,15.48-4.55,11.11-7.19,22.87-5.13,34.84a31.09,31.09,0,0,0,6.75,14c2,2.55,1.47,4.41,1.55,7.59a33,33,0,0,0,1.45,8.24c3,10.44,11.33,18.49,21.33,22.27a4.36,4.36,0,0,0,3.84-.5c2.58,4.83,7.31,8,11.57,11.09q1.38.66,2.8,1.24l.32.13.71.57,14.74,20.08c5.32,7.25,10.35,16,17,22.53,2.45.24,4.9.41,7.36.5a5.71,5.71,0,0,1,3-1.15,20.87,20.87,0,0,1,3.65-.06c9.72-1.5,19.8-.43,29.65-.06,2-1.85,4-3.79,5.9-5.8.33-.33.69-.62,1-.93l.28-.21c3.76-2.69,7.39-5.57,11-8.5,10-8.19,18.32-18.77,25.16-29.65a24.83,24.83,0,0,0,2.14-4.29,66.5,66.5,0,0,0,6.94-17.74,87,87,0,0,0,2.6-24.37A97.81,97.81,0,0,0,363,567.3a40.6,40.6,0,0,0-1.9-14c-.28-.86-.6-1.7-.95-2.53-.14-2-.33-4-.61-6.13-.75-5.58-3.87-10.77-5.47-16.14-1.67-5.6-2.08-11.56-3.15-17.28a4.1,4.1,0,0,0,4.81-3.56c1.94-10.75,3.76-21.85.31-32.5a28.28,28.28,0,0,0-15.69-17.56q1.55-6.77,2.62-13.66a5.91,5.91,0,0,0,3.19-.41c4.36-1.91,5.37-6.41,5.35-10.76,0-3,1-5.71,1.94-8.5,3.55-.18,7.09-.42,10.63-.77,7-.69,14.16-1.32,20.47-4.58s8.92-10.81,10.84-17.13c2.45-8,3.12-16.64,3.92-25C399.59,373.85,395.84,370.83,393,372ZM240,504.24a5.58,5.58,0,0,0-2.51,1.84c-.14.19-.27.39-.41.58.36-1.12.74-2.23,1.13-3.35a6.06,6.06,0,0,0,1.91.71Z" transform="translate(-16.36 -113.83)"/><path d="M546.93,161c.7,5.7,1.65,11.39,2.05,17.11.95,13.53-.7,26.7-6.35,39.18a59.8,59.8,0,0,1-19.39,23.86,127.12,127.12,0,0,0-24.81,24.76c-7.34,9.44-14.63,18.93-21.71,28.57-14,19.11-32,33.34-53.32,43.53-12.77,6.1-25.57,12.18-38.09,18.77-7.79,4.1-15.15,9-22.55,13.83a36.41,36.41,0,0,0-10.18,10c-2,2.94-3.48,6.06-2.82,9.81.24,1.34-.6,2-1.8,2a21.79,21.79,0,0,1-5.09-.52,74.72,74.72,0,0,1-24.3-11.5,17.87,17.87,0,0,1-3.76-3.73c-1.14-1.52-.49-2.85,1.4-3.21s4-.55,6-.93c4.64-.89,6.72-2.89,7.55-7.57.48-2.71.55-5.48.86-8.22a38,38,0,0,1,5.19-14.83c2.47-4.24,5-8.43,7.74-12.51,7.62-11.49,11.19-24.37,12.63-37.84.83-7.77.69-15.65.67-23.6.21.37.45.72.62,1.11,4.21,9.54,5,19.52,3.77,29.75-1.62,13.68-6.42,26.39-11.84,38.91q-2.59,6-5.08,12a11.35,11.35,0,0,0-.87,3,3.24,3.24,0,0,0,.46,2.32c.3.32,1.5.05,2.16-.24,4.87-2.17,9.72-4.4,14.56-6.63,18.92-8.72,38-17.21,56.22-27.31,13.3-7.36,26-15.61,36.53-26.74,2.57-2.71,5.57-5.36,7.07-8.63s1.07-7.23,1.89-10.8q2.18-9.56,5.22-18.94c1.47,6.38,1.07,12.69,0,19.56.55-.86.83-1.27,1.07-1.7,5.89-10.41,10.06-21.53,13.48-32.95a3.49,3.49,0,0,0-.06-2.27c-5-10.65-6.62-21.93-6.07-33.52.27-5.6,1.43-11.16,2.21-16.73a3.44,3.44,0,0,1,.58-1.33,47.79,47.79,0,0,0,1.68,16c1.56,5.85,3.35,11.63,5.14,17.8,1.3-6.49,2-25.7-.53-49.46-1.73-16.33-4.12-32.59-6.23-49,.42.32.94.67,1.42,1.08,4.51,3.91,7.06,9,9,14.54,3,8.67,4.38,17.71,5.89,26.72,1.67,10,3,20,6.59,29.57a53.6,53.6,0,0,0,3.19,7c2,3.7,5.4,5,9.52,4a15.25,15.25,0,0,0,8.79-6.29c4.5-6.36,6.62-13.62,8-21.16,2-11,2.06-22.09,1.83-33.2a4.46,4.46,0,0,1,.37-2.12c.75,1.55,1.58,3.08,2.25,4.67,4.57,11,5.62,22.47,4.49,34.13a114.56,114.56,0,0,1-3.36,17.66,47,47,0,0,1-11.08,20.11c-2.53,2.76-4.91,5.65-7.29,8.54a25.36,25.36,0,0,0-1.9,3.25,9,9,0,0,0,6.56-1.78c6.77-4.71,10.5-11.74,13.94-18.86,4.56-9.44,6.6-19.61,7.78-29.95.72-6.33,1.15-12.7,1.71-19Z" transform="translate(-16.36 -113.83)"/><path d="M248.7,267.23c0,4.41-.05,8.56,0,12.7.22,14.13,2.49,27.88,8.59,40.72,2.54,5.35,5.94,10.29,9,15.38,3.24,5.37,6.46,10.77,7.61,17,.67,3.6.71,7.32,1.28,10.95.84,5.27,2.77,7.17,8,8.22,1.8.36,3.64.54,5.44.89,2.11.4,2.68,1.68,1.43,3.42a11.93,11.93,0,0,1-2.54,2.63,71.25,71.25,0,0,1-27.72,12.63,9.27,9.27,0,0,1-2,.17c-2.37,0-2.87-.66-2.56-3a11.49,11.49,0,0,0-1.89-7.35c-2.86-4.92-7-8.7-11.48-12a210.36,210.36,0,0,0-30.95-18.4c-9.49-4.74-19-9.45-28.54-14a141.11,141.11,0,0,1-54.73-45.78c-6.71-9.38-13.69-18.56-20.71-27.71A138.08,138.08,0,0,0,81.35,238.1C68.8,228.46,61.8,215.37,58.78,200c-2.69-13.64-1.82-27.22,1.11-40.73,0-.11.13-.19.35-.52.24,3.86.43,7.5.7,11.13.83,11.28,2.4,22.43,6.26,33.15A69.91,69.91,0,0,0,77.68,222c2.36,3.08,5.28,5.66,9.2,6.7a18.69,18.69,0,0,0,2.79.24,25,25,0,0,0-1.72-3.1,77.2,77.2,0,0,0-5.28-6.37c-8.57-8.81-13.22-19.5-15.25-31.45-2.29-13.44-2-26.76,2.42-39.79.73-2.14,1.76-4.18,2.68-6.24.27-.6.66-1.14,1.19-2,0,1.62,0,2.86,0,4.1-.4,11.31-.15,22.58,2,33.72,1.32,6.79,3.4,13.31,7.4,19.06a15.38,15.38,0,0,0,8.71,6.39c4.16,1.14,7.55-.23,9.7-4a60.85,60.85,0,0,0,6.55-18.47c2.1-10.46,3.9-21,5.94-31.44a74,74,0,0,1,5.52-17.88,27,27,0,0,1,8.59-10.89c-2.23,16.37-4.69,32.55-6.58,48.8s-2.65,32.71-1,49.16c3.33-10.77,7.88-21.26,7.11-32.92l.45-.07c.52,2.58,1.17,5.14,1.54,7.75,1.87,13.46.9,26.67-3.84,39.5a3.15,3.15,0,0,1-.28.68c-2.08,3.09-1.59,6.17-.47,9.54,3.35,10,7,19.89,12.15,29.15a5.72,5.72,0,0,0,.85,1.19c-.83-6.37-1.23-12.7-.09-19l.55-.12c1.28,4.51,2.79,9,3.8,13.54,1.08,4.9,1.66,9.91,2.56,14.85a7.41,7.41,0,0,0,1.31,3.1c8.27,10.72,18.56,19.19,29.85,26.51,14.75,9.57,30.49,17.28,46.31,24.84,12.16,5.81,24.4,11.48,36.62,17.17a9.42,9.42,0,0,0,2.4.43c.12-.86.56-1.83.31-2.56-1.19-3.53-2.45-7.06-3.91-10.49-4.64-10.89-9.18-21.81-11.73-33.43-2.5-11.35-3.24-22.7.19-34C246.87,271.83,247.81,269.63,248.7,267.23Z" transform="translate(-16.36 -113.83)"/><path d="M267.34,671.75c4.51-.92,7.78,1.13,10.19,4.33A53.37,53.37,0,0,0,262.45,655c-5.73-4.9-11.75-9.46-17.72-14.06-9.14-7-18.27-14.08-26.33-22.39-7.58-7.82-14.11-16.33-17.34-27a1.76,1.76,0,0,0-.31-.44l-.57.22c1.3,4.51,2.29,9.14,3.95,13.52,3.77,10,10.17,18.33,17.51,25.89,9.1,9.37,18.53,18.42,27.84,27.58A159.22,159.22,0,0,1,264,674.63,5,5,0,0,1,267.34,671.75Z" transform="translate(-16.36 -113.83)"/><path d="M244.82,430c-5.6,13.65-6.87,28.19-10.07,42.25-1.85,8.15-4.05,16.17-7.73,23.72-7.62,15.65-20.31,24.08-37.36,26.34-1.56.21-3.14.33-4.54.48,3.08-1.19,6.36-2.19,9.4-3.69,6.43-3.18,11.17-8.31,15.19-14.14,5.94-8.6,9.87-18.18,13.59-27.87,4-10.3,7.68-20.69,11.94-30.86,2-4.77,5-9.13,7.55-13.64A22.82,22.82,0,0,1,244.82,430Z" transform="translate(-16.36 -113.83)"/><path d="M287.27,668c-1.77-12.31-3.81-24.19-9.58-34.93-4.06-7.54-8.65-14.82-13.23-22.06-5-8-10.55-15.67-15.5-23.71-4.72-7.67-8.14-15.95-9.2-25a53,53,0,0,1-.23-7.86,58.09,58.09,0,0,0,5.29,16.28c4.1,8.38,9.63,15.81,15.6,22.91,5.18,6.15,10.46,12.2,15.69,18.3a49.49,49.49,0,0,1,12.35,33.24c0,7-.52,14.09-.83,21.14A12,12,0,0,1,287.27,668Z" transform="translate(-16.36 -113.83)"/><path d="M204.52,366.38c11.5,5.17,22.91,10,33.08,17.3a52,52,0,0,1,12.46,12.06c.24.34.48.7.7,1.05,0,.07,0,.18.06.51a87,87,0,0,0-42.33-21.76c-.16,3.39-.43,6.64-.45,9.88a52.2,52.2,0,0,0,2.7,17.75c4.4,12.48,13.49,19.09,26.33,21,.42.06.83.12,1.24.2.07,0,.12.15.18.23-14,1.31-26-4.13-31.77-18.13-3.46-8.38-4.22-17.18-3.8-26.11.2-4.31.85-8.61,1.3-12.91A7.83,7.83,0,0,1,204.52,366.38Z" transform="translate(-16.36 -113.83)"/><path d="M400.73,365.67c1.92,13.18,2.58,26-2,38.46-4.78,13-14.61,19.73-28.46,19.77h-4.07l0-.4c1.36-.22,2.72-.4,4.07-.68,14.46-3,22.53-12.16,25.51-26.26a69.53,69.53,0,0,0,.87-20c0-.52-.17-1-.27-1.65A89.12,89.12,0,0,0,354,396c.23-.37.44-.75.7-1.1A52.78,52.78,0,0,1,368,382.34c8.69-6,18.26-10.31,27.87-14.54Z" transform="translate(-16.36 -113.83)"/><path d="M365.13,596.94c.73-17.76-3.55-34.69-8.27-51.55-3-10.8-5.95-21.63-7.43-32.78a98,98,0,0,1-.39-23c.14.77.3,1.53.43,2.3,2,11.84,6.06,23.1,10,34.39,3.7,10.72,7.34,21.46,9.2,32.7,2.09,12.64,1.49,25-3.13,37.12C365.39,596.41,365.25,596.67,365.13,596.94Z" transform="translate(-16.36 -113.83)"/><path d="M354.87,421.83c-12.19-6.42-26,4.3-27.27,17.76a26.4,26.4,0,0,1,.13-10.86,31.86,31.86,0,0,1,5.91-12.15c1.42-1.92,2.9-3.8,4.38-5.68,3.31-4.21,6.35-8.57,8-13.83,0,5.72,3.21,10.12,5.78,14.78A22,22,0,0,1,354.87,421.83Z" transform="translate(-16.36 -113.83)"/><path d="M276.78,439.39c-.7-6.7-3.51-12.26-8.91-16.29s-11.53-5.18-18-1.85l-.42-.3c.64-2.26,1.15-4.57,2-6.77a39.78,39.78,0,0,1,2.44-4.73,64,64,0,0,0,3.24-6.17,58.49,58.49,0,0,0,1.82-6.61c1.95,6.95,6.59,12.23,10.82,17.76,3.8,5,7,10.29,7.47,16.71.22,2.71,0,5.45,0,8.17Z" transform="translate(-16.36 -113.83)"/><path d="M200.14,610a43.24,43.24,0,0,1-9.32-17.09c-3.38-11.21-4.2-22.5-.62-33.84a27.33,27.33,0,0,1,6.4-11A146.72,146.72,0,0,0,200.14,610Z" transform="translate(-16.36 -113.83)"/><path d="M352.74,634.8c0-4.69-.16-9.38,0-14.06.51-12.29,3.12-17.29,5.13-29.38.52-3.14,1,6.71,1.7,3.48.17.93.37,1.86.5,2.8,1.72,12.19,2.4,4.4.58,16.64a53.51,53.51,0,0,1-5.13,17c-.64,1.24-1.39,2.43-2.09,3.64Z" transform="translate(-16.36 -113.83)"/><path d="M333.59,493.35c1-4.71,2.35-9.38,3.1-14.14,1.65-10.47,3-21,4.49-31.49a5.17,5.17,0,0,0,.05-.55c.09-2.84.76-5.09,3.72-6.59,2.21-1.12,3.88-3.31,6.17-4.89-2.32,9.83-4.52,19.69-7,29.49S338.89,484.64,333.59,493.35Z" transform="translate(-16.36 -113.83)"/><path d="M253.89,435c.87.84,1.72,1.7,2.63,2.5a20.69,20.69,0,0,0,3.95,3.26,4.18,4.18,0,0,1,2.48,3.76c1.2,10,2.38,20.08,3.87,30.07.93,6.22,2.39,12.35,3.72,19-1.38-2.87-2.7-5.31-3.75-7.85-4.26-10.22-6.74-21-9.17-31.72-1.41-6.26-2.73-12.55-4.1-18.82Z" transform="translate(-16.36 -113.83)"/><path d="M331.08,651a1.66,1.66,0,0,0-.36.34,46.72,46.72,0,0,1-12.49,13.84c-3.67,2.87-7.42,5.65-11.08,8.54a73.85,73.85,0,0,0-6.68,6,5,5,0,0,1,2.41,2.84,5.77,5.77,0,0,1,.64.58c.9-.58,1.79-1.17,2.67-1.77,4.44-3.05,9-5.94,13.26-9.26A30.73,30.73,0,0,0,330,656.9c.59-1.89,1-3.85,1.43-5.77Z" transform="translate(-16.36 -113.83)"/><path d="M331.83,512.14c6.41,16.82,12.28,33.71,7.56,52.12C333.23,547.42,333.68,529.61,331.83,512.14Z" transform="translate(-16.36 -113.83)"/><path d="M274.28,533.75a146.66,146.66,0,0,0,19.87,49.19c-1.18-.8-2.07-1.32-2.85-2-6.78-5.51-11.33-12.63-14.65-20.6-2.74-6.58-4.38-13.4-3.59-20.59C273.28,537.75,273.86,535.76,274.28,533.75Z" transform="translate(-16.36 -113.83)"/><path d="M242.06,516.55A144.09,144.09,0,0,0,236.28,569a29.87,29.87,0,0,1-1.51-3,53.21,53.21,0,0,1,.85-40.79A23.22,23.22,0,0,1,242.06,516.55Z" transform="translate(-16.36 -113.83)"/><path d="M183.31,566.57c-.34-3.07-.83-6.13-1-9.21-.41-7.76.6-15.29,4.2-22.3a22.92,22.92,0,0,1,12-11.33c.49-.2,1-.36,2-.72-8.93,13.55-16.41,27.17-16.74,43.48Z" transform="translate(-16.36 -113.83)"/><path d="M324.89,582.62a23.69,23.69,0,0,1-.49,10.66A32.51,32.51,0,0,1,317.67,606c-2.1,2.56-4.32,5-6.54,7.46-4,4.4-8,8.81-10.5,14.38.42-1.53.79-3.07,1.26-4.59a57.57,57.57,0,0,1,8.84-17c1.67-2.27,3.38-4.51,5.1-6.74C319.76,594.36,323.23,589,324.89,582.62Z" transform="translate(-16.36 -113.83)"/><path d="M331.21,662.87c1.64-4.39,3.06-8.88,5-13.14,2.27-5,5-9.8,7.49-14.73,2.11-4.21,4.11-8.48,6.08-12.58,2.76,7.59-6.62,29.07-17.94,40.66Z" transform="translate(-16.36 -113.83)"/><path d="M334.21,442.25c-1.23-6.06,3.16-15,8.34-17.49,2.63-1.25,7-.71,8.09,1,.82,1.31-.3,5.32-2.36,7a39.65,39.65,0,0,1-6.39,3.92C339.11,438.11,336.21,439.33,334.21,442.25Z" transform="translate(-16.36 -113.83)"/><path d="M270.38,442c-2.1-3.1-5-4.46-8-5.87a23.32,23.32,0,0,1-4.32-2.4,11.75,11.75,0,0,1-3.38-3.75c-.67-1.38-1.24-3.55-.61-4.65,1-1.67,3.25-2,5.29-1.82a9.17,9.17,0,0,1,5.72,3A20.44,20.44,0,0,1,270.38,442Z" transform="translate(-16.36 -113.83)"/><path d="M355.93,507c-.22-5.86-.32-11.73-.68-17.59s-2.13-11.14-4.32-16.44c-1.49-3.6-2.64-7.33-3.78-11.06,5.18,3.85,10.83,14.27,11.66,21C359.81,491.2,358.13,499.15,355.93,507Z" transform="translate(-16.36 -113.83)"/><path d="M229.68,530.17A46.14,46.14,0,0,1,233,509.89a26.81,26.81,0,0,1,6.36-9.57,17.49,17.49,0,0,1,9.09-4.57C239.7,506.17,232.28,516.86,229.68,530.17Z" transform="translate(-16.36 -113.83)"/><path d="M270.64,512.12c-3,13.39-4.58,26.33-.68,39.36a47,47,0,0,1-6.11-16.79,29.62,29.62,0,0,1,.69-13.83A17.31,17.31,0,0,1,270.64,512.12Z" transform="translate(-16.36 -113.83)"/><path d="M333.83,554.4c4,13.51-.35,25.8-5.76,38.42,0-3-.36-5.63.07-8.11,1.29-7.48,2.9-14.91,4.34-22.36C333,559.71,333.38,557,333.83,554.4Z" transform="translate(-16.36 -113.83)"/><path d="M244.83,412.69c-5.57,3.8-17.41,1-19.48-4.48C231.33,411.9,237.78,412.92,244.83,412.69Z" transform="translate(-16.36 -113.83)"/><path d="M379.55,407.27c-2.17,5.69-15.39,8.66-19.34,4.45C367,412,373.52,411.06,379.55,407.27Z" transform="translate(-16.36 -113.83)"/><path d="M218.58,389.56c2.9,1.9,5.88,3.68,8.67,5.73a10.9,10.9,0,0,1,4.66,7.43,6.86,6.86,0,0,1-.17,2.35c-2.66-6.73-8.93-10.18-13.5-15.15Z" transform="translate(-16.36 -113.83)"/><path d="M386.57,389.31c-4.6,4.84-10.82,8.24-13.37,15.08a6,6,0,0,1,.68-5.41,21.67,21.67,0,0,1,4.45-5,91.19,91.19,0,0,1,7.94-5Z" transform="translate(-16.36 -113.83)"/><path class="a" d="M319.44,490.91a58.37,58.37,0,0,1-7.22-2.15c-3.43-1.51-4.21-4.69-1.74-7.48a13.83,13.83,0,0,1,5.19-3.5c2.41-.95,4.31.38,4.93,2.95C321.42,484.08,320.44,487.26,319.44,490.91Z" transform="translate(-16.36 -113.83)"/><path class="a" d="M283.17,484.07c.12-2.78-.07-5.35,2.48-6.54s4.65.21,6.51,1.79a9.64,9.64,0,0,1,2.15,2.7c1.24,2.29.78,4.78-1.54,5.84a40.92,40.92,0,0,1-7.68,2.13c-.25.06-.88-.56-1-.95C283.7,487.26,283.42,485.45,283.17,484.07Z" transform="translate(-16.36 -113.83)"/><path d="M322,460.29a77,77,0,0,0-3.79-7.23l-.43.23,2.48,12.21c-3.79-1.43-6.63-3.74-10.78-3.48a35.19,35.19,0,0,1,2.48,3.29,36.45,36.45,0,0,1,2.56,5.18,2.22,2.22,0,0,1-.78,2c-5,3.18-9.57,6.69-11.63,12.63-.83-1.61-1.47-3.09-2.31-4.42-2.21-3.5-5.42-6-8.85-8.18-1-.63-1.51-1.41-1-2.42a60.11,60.11,0,0,1,3-5.36,34.89,34.89,0,0,1,2.25-2.91c-4.18-.28-7.15,2-10.89,3.25L287,453.23l-.6-.28a69.76,69.76,0,0,0-4.06,7.69c-4.51,11.77-5.7,23.95-4.59,36.35a5.13,5.13,0,0,0,1.75,1.47c8.08,3.54,39.23,5.2,45.67,2.45l.4-.18a76,76,0,0,0,1-14.3C326.42,477.47,325.34,468.66,322,460.29Zm-29.23,27.57a40.92,40.92,0,0,1-7.68,2.13c-.25.06-.88-.56-1-.95-.41-1.78-.69-3.6-.94-5,.12-2.78-.07-5.35,2.48-6.54s4.65.21,6.51,1.79a9.64,9.64,0,0,1,2.15,2.7C295.54,484.32,295.08,486.8,292.76,487.87Zm26.69,3a58.38,58.38,0,0,1-7.22-2.15c-3.43-1.51-4.21-4.69-1.74-7.48a13.83,13.83,0,0,1,5.19-3.5c2.41-.95,4.31.38,4.93,2.95C321.42,484.08,320.44,487.26,319.44,490.91Z" transform="translate(-16.36 -113.83)"/><path d="M311.57,506.67c-12,0-27-1.61-33-3.85a11,11,0,0,0,1.5,3.74c3.65,5,5.71,7.77,9,8.53,9.61,2.22,11.87,2.52,22.25,1.58,4.36-.4,6.08-1.23,12-9a11,11,0,0,0,1-2A68.06,68.06,0,0,1,311.57,506.67Z" transform="translate(-16.36 -113.83)"/><path d="M324.32,505.73" transform="translate(-16.36 -113.83)"/><path d="M325.57,500.72" transform="translate(-16.36 -113.83)"/><path d="M277.75,497" transform="translate(-16.36 -113.83)"/><path d="M278.54,502.82" transform="translate(-16.36 -113.83)"/><polygon class="e" points="8.42 567.62 31.77 544.16 6.94 519.21 31.77 494.27 8.42 470.81 553.75 470.81 530.4 494.27 555.23 519.21 530.4 544.16 553.75 567.62 8.42 567.62"/><path class="a" d="M561.69,588.14l-16.35,16.43-3.52,3.53,3.52,3.54L566.66,633l-21.31,21.41L541.83,658l3.52,3.53L561.69,678H33.2l16.35-16.43L53.07,658l-3.52-3.54L28.24,633l21.31-21.41,3.52-3.54-3.52-3.53L33.2,588.14H561.69m16.84-7H16.36l11.88,11.94,15,15-19.91,20L18.36,633,23.28,638l19.91,20L28.24,673,16.37,685H578.53L566.65,673l-14.95-15,19.91-20,4.92-4.94-4.92-4.94-19.92-20,15-15,11.88-11.94Z" transform="translate(-16.36 -113.83)"/><path class="a" d="M67.1,628.17s3.65,4.31,9,4.31c3.35,0,6.14-2,6.14-5.33,0-7.51-17.31-6.34-17.31-17.51,0-5.38,4.72-9.59,11.47-9.59,3.81,0,10.2,1.73,10.2,6.6v2.94H81.91v-1.67c0-1.88-2.69-3.25-5.53-3.25-3.86,0-6.29,2.13-6.29,4.82,0,7.26,17.26,5.63,17.26,17.41,0,5.48-4.26,10.2-11.37,10.2a16,16,0,0,1-11.88-5.33Z" transform="translate(-16.36 -113.83)"/><path class="a" d="M94.65,606.14A1,1,0,0,0,93.53,605H91.35v-4.36h5.13c2.28,0,3.25,1,3.25,3.25v11.83h3.4c1.32,0,2.33-.2,2.94-1.22l8-13.86h5.68L111,615.53a6.21,6.21,0,0,1-2,2.33v.1s1,.25,2,2.23L116.42,631c.51,1.07,1.32,1.17,2.54,1.17h1v4.36h-2.79c-2.79,0-3.81-.36-5-2.69L106,621.37c-.61-1.17-1.73-1.32-3.2-1.32h-3v16.44H94.65Z" transform="translate(-16.36 -113.83)"/><path class="a" d="M122.56,632.13h3.5V605h-3.5v-4.36h11.82V605h-3.5v27.1h3.5v4.36H122.56Z" transform="translate(-16.36 -113.83)"/><path class="a" d="M156.36,600.05c8.58,0,12.79,4.42,12.79,4.42l-2.89,3.7a15.75,15.75,0,0,0-9.79-3.45c-7.16,0-12.89,5.73-12.89,13.7,0,8.32,5.73,13.91,13,13.91a14.26,14.26,0,0,0,10.2-4.47v-3.6a1,1,0,0,0-1.12-1.12h-2.18v-4.36h4.72c2.28,0,3.25,1,3.25,3.25v14.46H167v-2.23c0-.76.05-1.52.05-1.52h-.1a15.87,15.87,0,0,1-11.17,4.37c-9.54,0-17.46-7.51-17.46-18.68C138.3,608.12,146.11,600.05,156.36,600.05Z" transform="translate(-16.36 -113.83)"/><path class="a" d="M178.79,605h-3.3v-4.36h21.06c2.28,0,3.25,1,3.25,3.25v4.52h-4.62v-2.28a1,1,0,0,0-1.12-1.12h-10.2v11.22H196.4v4.37H183.87V631a1,1,0,0,0,1.12,1.12h10.46a1,1,0,0,0,1.12-1.12v-2.28h4.67v4.52c0,2.28-1,3.25-3.25,3.25H182c-2.28,0-3.25-1-3.25-3.25Z" transform="translate(-16.36 -113.83)"/><path class="a" d="M203.41,632.13h1.73c.71,0,1.07-.41,1.12-1.12l2.44-30.35h5.23l8.42,19c.86,1.93,1.78,4.52,1.78,4.52h.1s.91-2.59,1.78-4.52l8.42-19h5.23L242.08,631c.05.71.41,1.12,1.12,1.12h1.67v4.36h-4.52c-2.28,0-3.1-1-3.25-3.25l-1.47-18.93c-.15-2.13-.1-5.28-.1-5.28h-.1s-1,3.35-1.88,5.28L226.29,630H222l-7.26-15.73c-.86-1.88-1.93-5.33-1.93-5.33h-.1s.05,3.2-.1,5.33l-1.42,18.93c-.15,2.28-1,3.25-3.3,3.25h-4.52Z" transform="translate(-16.36 -113.83)"/><path class="a" d="M251.11,605h-3.3v-4.36h21.06c2.28,0,3.25,1,3.25,3.25v4.52H267.5v-2.28a1,1,0,0,0-1.12-1.12h-10.2v11.22h12.54v4.37H256.19V631a1,1,0,0,0,1.12,1.12h10.46a1,1,0,0,0,1.12-1.12v-2.28h4.67v4.52c0,2.28-1,3.25-3.25,3.25H254.36c-2.28,0-3.25-1-3.25-3.25Z" transform="translate(-16.36 -113.83)"/><path class="a" d="M276.84,632.13h3.5V605h-3.5v-4.36h11.82V605h-3.5v27.1h3.5v4.36H276.84Z" transform="translate(-16.36 -113.83)"/><path class="a" d="M292.72,632.13h2.18A1,1,0,0,0,296,631V600.66h4.62l15.94,22.69c1.32,1.93,3,4.87,3,4.87h.1a48.67,48.67,0,0,1-.36-4.87V603.91c0-2.28,1-3.25,3.3-3.25h5.08V605h-2.18a1,1,0,0,0-1.12,1.12v30.35h-4.57l-16-22.69c-1.32-1.93-2.94-4.87-2.94-4.87h-.1s.3,2.89.3,4.87v19.44c0,2.28-1,3.25-3.25,3.25h-5.13Z" transform="translate(-16.36 -113.83)"/><path class="a" d="M334.34,628.17s3.65,4.31,9,4.31c3.35,0,6.14-2,6.14-5.33,0-7.51-17.31-6.34-17.31-17.51,0-5.38,4.72-9.59,11.47-9.59,3.81,0,10.2,1.73,10.2,6.6v2.94h-4.67v-1.67c0-1.88-2.69-3.25-5.53-3.25-3.86,0-6.29,2.13-6.29,4.82,0,7.26,17.26,5.63,17.26,17.41,0,5.48-4.26,10.2-11.37,10.2a16,16,0,0,1-11.88-5.33Z" transform="translate(-16.36 -113.83)"/><path class="a" d="M376.36,600.05c4.82,0,13.45,2,13.45,7.77v3.5h-4.67v-2c0-3-5.07-4.52-8.68-4.52-7.21,0-12.79,5.43-12.79,13.5,0,7.82,5.63,14.06,12.94,14.06a15.89,15.89,0,0,0,11.32-4.87l2.74,3.65a19.43,19.43,0,0,1-14.11,6c-10.71,0-18.17-8.27-18.17-18.83C358.39,607.92,366.11,600.05,376.36,600.05Z" transform="translate(-16.36 -113.83)"/><path class="a" d="M397.47,606.14a1,1,0,0,0-1.12-1.12h-2.18v-4.36h5.13c2.28,0,3.25,1,3.25,3.25v12.54h18.22V603.91c0-2.28,1-3.25,3.25-3.25h5.13V605H427a1,1,0,0,0-1.12,1.12v30.35h-5.08V620.76H402.55v15.73h-5.08Z" transform="translate(-16.36 -113.83)"/><path class="a" d="M431.68,632.13h.71c.91,0,1.37-.2,1.67-1.12l11.22-30.35h5.33L461.82,631a1.46,1.46,0,0,0,1.67,1.12h.76v4.36h-2.84c-2.54,0-3.35-.61-4.16-2.94l-2.69-7.36h-13.2l-2.69,7.36c-.86,2.33-1.67,2.94-4.21,2.94h-2.79Zm21.62-10.2L449.39,611c-.66-1.88-1.42-5-1.42-5h-.1s-.71,3.15-1.37,5l-3.91,10.91Z" transform="translate(-16.36 -113.83)"/><path class="a" d="M470,605h-3.3v-4.36h19.74c2.28,0,3.25,1,3.25,3.25v4.52h-4.62v-2.28A1,1,0,0,0,484,605h-8.88V616.8h12.23v4.36H475.12v15.33H470Z" transform="translate(-16.36 -113.83)"/><path class="a" d="M504.45,605h-7.21a1,1,0,0,0-1.12,1.12v2.28h-4.52v-4.72c0-2.28.76-3,3-3h24.66c2.28,0,3,.76,3,3v4.72h-4.52v-2.28a1,1,0,0,0-1.12-1.12h-7.21v31.47h-5.08Z" transform="translate(-16.36 -113.83)"/><path class="a" d="M166,648.23h-1.67v-1.59h9.6c1.1,0,1.54.46,1.54,1.57V650h-1.67V648.8a.5.5,0,0,0-.57-.56h-5.44V655h6.55v1.59h-6.55v8.09H166Z" transform="translate(-16.36 -113.83)"/><path class="a" d="M183.73,651.47a6.77,6.77,0,1,1-6.81,6.7A6.69,6.69,0,0,1,183.73,651.47Zm0,12a5.09,5.09,0,0,0,5-5.26,5,5,0,1,0-10,0A5.1,5.1,0,0,0,183.76,663.43Z" transform="translate(-16.36 -113.83)"/><path class="a" d="M193.82,653.86a.51.51,0,0,0-.57-.57h-1.08v-1.51H194c1.08,0,1.57.44,1.57,1.46v.87a9.25,9.25,0,0,1-.05,1h.05c.62-2,2.05-3.44,4.08-3.44a3.49,3.49,0,0,1,.69.08v1.72a4.39,4.39,0,0,0-.64-.05c-1.82,0-3.18,1.44-3.75,3.34a8.52,8.52,0,0,0-.36,2.52v5.44h-1.75Z" transform="translate(-16.36 -113.83)"/><path class="a" d="M202.62,661.53a5.26,5.26,0,0,0,4,2c1.44,0,2.72-.69,2.72-2.05,0-2.82-7.24-2.31-7.24-6.47,0-2.34,2-3.49,4.6-3.49,1.31,0,3.93.51,3.93,2.34v1.1H209v-.62c0-1-1.39-1.31-2.23-1.31-1.8,0-2.88.62-2.88,1.87,0,2.9,7.24,2.23,7.24,6.52,0,2.16-2,3.62-4.52,3.62a6.2,6.2,0,0,1-5-2.26Z" transform="translate(-16.36 -113.83)"/><path class="a" d="M214.56,653.24h-1.7v-1.46h1.72v-3.57h1.72v3.57h3.24v1.46h-3.24v6.57c0,3,1.93,3.42,2.9,3.42a3,3,0,0,0,.59-.05v1.57a5.05,5.05,0,0,1-.74.05c-1.49,0-4.49-.49-4.49-4.8Z" transform="translate(-16.36 -113.83)"/><path class="a" d="M227.91,651.47c3.57,0,5.42,2.75,5.42,6,0,.31-.05.87-.05.87h-9.91a4.9,4.9,0,0,0,5,5.14,5.76,5.76,0,0,0,3.88-1.59l.85,1.31a7.33,7.33,0,0,1-4.8,1.85,6.54,6.54,0,0,1-6.75-6.75C221.54,654,224.45,651.47,227.91,651.47Zm3.62,5.44c-.1-2.67-1.75-4-3.65-4a4.44,4.44,0,0,0-4.44,4Z" transform="translate(-16.36 -113.83)"/><path class="a" d="M236.82,653.86a.51.51,0,0,0-.57-.57h-1.08v-1.51H237c1.08,0,1.57.46,1.57,1.44v.59a8.25,8.25,0,0,1-.05.92h.05a5.49,5.49,0,0,1,5.14-3.26c3.21,0,4.34,1.82,4.34,5v6.14a.5.5,0,0,0,.57.56h1.08v1.52h-1.82c-1.1,0-1.57-.46-1.57-1.57v-6.19c0-2-.31-3.83-2.8-3.83a4.91,4.91,0,0,0-4.7,3.65,6.42,6.42,0,0,0-.21,1.75v6.19h-1.75Z" transform="translate(-16.36 -113.83)"/><path class="a" d="M252.43,653.86a.51.51,0,0,0-.57-.57h-1.08v-1.51h1.8c1.08,0,1.57.44,1.57,1.46v.87a9.25,9.25,0,0,1-.05,1h.05c.62-2,2.05-3.44,4.08-3.44a3.49,3.49,0,0,1,.69.08v1.72a4.39,4.39,0,0,0-.64-.05c-1.82,0-3.18,1.44-3.75,3.34a8.52,8.52,0,0,0-.36,2.52v5.44h-1.75Z" transform="translate(-16.36 -113.83)"/><path class="a" d="M261.85,653.86a.51.51,0,0,0-.56-.57h-1.08v-1.51H262c1.1,0,1.57.46,1.57,1.57v9.27a.5.5,0,0,0,.57.56h1.08v1.52h-1.82c-1.1,0-1.57-.46-1.57-1.57Zm-.05-7.22h1.69v2.21H261.8Z" transform="translate(-16.36 -113.83)"/><path class="a" d="M273.33,651.47c3.57,0,5.42,2.75,5.42,6,0,.31-.05.87-.05.87h-9.91a4.9,4.9,0,0,0,5,5.14,5.76,5.76,0,0,0,3.88-1.59l.85,1.31a7.33,7.33,0,0,1-4.8,1.85,6.54,6.54,0,0,1-6.75-6.75C267,654,269.86,651.47,273.33,651.47Zm3.62,5.44c-.1-2.67-1.75-4-3.65-4a4.44,4.44,0,0,0-4.44,4Z" transform="translate(-16.36 -113.83)"/><path class="a" d="M286.88,651.47a4.56,4.56,0,0,1,4.21,2.41h.05a9.25,9.25,0,0,1-.05-1v-4.19a.51.51,0,0,0-.56-.56h-1.08v-1.52h1.82c1.1,0,1.57.46,1.57,1.57v14.41a.5.5,0,0,0,.57.56h1.08v1.52h-1.8c-1.08,0-1.54-.49-1.54-1.44a6,6,0,0,1,.05-.82h-.05A4.67,4.67,0,0,1,286.7,665c-3.47,0-5.62-2.77-5.62-6.78S283.49,651.47,286.88,651.47Zm4.26,6.75c0-2.62-1.34-5.19-4.11-5.19-2.29,0-4.16,1.93-4.16,5.19s1.67,5.21,4.08,5.21C289.12,663.43,291.15,661.89,291.15,658.22Z" transform="translate(-16.36 -113.83)"/><path class="a" d="M311,655.65a3.66,3.66,0,1,1,3.67,3.67A3.67,3.67,0,0,1,311,655.65Z" transform="translate(-16.36 -113.83)"/><path class="a" d="M344.31,646.33a9.07,9.07,0,0,1,6.32,2.21l-1.05,1.34a8.22,8.22,0,0,0-5.24-1.85c-4.06,0-7.17,3.26-7.17,7.6s3.06,7.68,7.14,7.68a7.83,7.83,0,0,0,5.7-2.65v-2.23a.5.5,0,0,0-.57-.57h-1.1v-1.59h1.8c1.1,0,1.57.46,1.57,1.57v6.86h-1.64v-1.36c0-.38,0-.77,0-.77H350a8.16,8.16,0,0,1-5.91,2.44c-4.93,0-8.83-4-8.83-9.37A9,9,0,0,1,344.31,646.33Z" transform="translate(-16.36 -113.83)"/><path class="a" d="M362.21,656.73h.72v-.15c0-2.7-1-3.65-3.34-3.65-.64,0-2.52.18-2.52,1.13v.82H355.4v-1.23c0-1.8,3.08-2.18,4.21-2.18,4.08,0,5.06,2.18,5.06,5v6.19a.5.5,0,0,0,.56.56h1.08v1.52h-1.77c-1.1,0-1.54-.49-1.54-1.54,0-.56,0-1,0-1H363a4.57,4.57,0,0,1-4.29,2.8c-2.16,0-4.39-1.26-4.39-3.83C354.3,656.89,360,656.73,362.21,656.73ZM359,663.51c2.46,0,4-2.57,4-4.8v-.59h-.75c-2,0-6.09.05-6.09,3A2.57,2.57,0,0,0,359,663.51Z" transform="translate(-16.36 -113.83)"/><path class="a" d="M369,653.86a.51.51,0,0,0-.56-.57h-1.08v-1.51h1.82c1.1,0,1.57.46,1.57,1.51v6.24c0,2,.33,3.83,2.83,3.83,2.93,0,4.75-2.59,4.75-5.39v-6.19h1.75v10.84a.5.5,0,0,0,.57.56h1.08v1.52H380c-1.08,0-1.57-.46-1.57-1.44v-.59a8.41,8.41,0,0,1,.05-.92h-.05a5.51,5.51,0,0,1-5,3.26c-3.06,0-4.34-1.64-4.34-5Z" transform="translate(-16.36 -113.83)"/><path class="a" d="M384.72,653.24H383v-1.46h1.72v-3.57h1.72v3.57h3.24v1.46h-3.24v6.57c0,3,1.93,3.42,2.9,3.42a3,3,0,0,0,.59-.05v1.57a5.05,5.05,0,0,1-.74.05c-1.49,0-4.49-.49-4.49-4.8Z" transform="translate(-16.36 -113.83)"/><path class="a" d="M393.29,653.86a.51.51,0,0,0-.56-.57h-1.08v-1.51h1.82c1.1,0,1.57.46,1.57,1.57v9.27a.5.5,0,0,0,.56.56h1.08v1.52h-1.82c-1.1,0-1.57-.46-1.57-1.57Zm-.05-7.22h1.69v2.21h-1.69Z" transform="translate(-16.36 -113.83)"/><path class="a" d="M399.61,653.86a.51.51,0,0,0-.57-.57H398v-1.51h1.8c1.08,0,1.57.46,1.57,1.44v.59a8.25,8.25,0,0,1-.05.92h.05a5.49,5.49,0,0,1,5.14-3.26c3.21,0,4.34,1.82,4.34,5v6.14a.5.5,0,0,0,.57.56h1.08v1.52h-1.82c-1.1,0-1.57-.46-1.57-1.57v-6.19c0-2-.31-3.83-2.8-3.83a4.91,4.91,0,0,0-4.7,3.65,6.42,6.42,0,0,0-.21,1.75v6.19h-1.75Z" transform="translate(-16.36 -113.83)"/><path class="a" d="M419.66,651.47c3.47,0,4.29,2.21,4.29,2.21H424v-.49c0-.92.41-1.41,1.46-1.41h1.8v1.51h-1.05a.5.5,0,0,0-.57.57v10.53c0,4.11-3,5.7-6.21,5.7a9.43,9.43,0,0,1-4.21-1l.67-1.46a7.93,7.93,0,0,0,3.49.9c2.52,0,4.52-1.18,4.52-4.06v-1.13c0-.49,0-.92,0-.92h-.05a4.23,4.23,0,0,1-4.06,2.23c-3.47,0-5.75-2.75-5.75-6.62S416.2,651.47,419.66,651.47Zm4.26,6.52c0-3.78-1.8-4.93-4.08-4.93-2.52,0-4,1.82-4,4.9s1.67,5.08,4.21,5.08C422.13,663,423.92,661.79,423.92,658Z" transform="translate(-16.36 -113.83)"/></svg>